<?xml version="1.0" encoding="utf-8"?>
<!-- Generator: Adobe Illustrator 19.2.1, SVG Export Plug-In . SVG Version: 6.00 Build 0)  -->
<svg version="1.1" id="Layer_1" xmlns="http://www.w3.org/2000/svg" xmlns:xlink="http://www.w3.org/1999/xlink" x="0px" y="0px"
	 viewBox="0 0 76.8 76.8" style="enable-background:new 0 0 76.8 76.8;" xml:space="preserve">
<style type="text/css">
	.st0{fill:#CCCCCC;}
</style>
<g>
	<path class="st0" d="M38.4,76.8C17.2,76.8,0,59.6,0,38.4C0,17.2,17.2,0,38.4,0s38.4,17.2,38.4,38.4C76.8,59.6,59.6,76.8,38.4,76.8z
		 M38.4,7C21.1,7,7,21.1,7,38.4s14.1,31.4,31.4,31.4c17.3,0,31.4-14.1,31.4-31.4S55.7,7,38.4,7z"/>
	<polygon class="st0" points="62.5,31.8 57.5,26.8 38.4,45.9 19.3,26.8 14.4,31.8 38.4,55.8 38.4,55.8 38.4,55.8 	"/>
</g>
</svg>
