<?xml version="1.0" encoding="utf-8"?>
<!-- Generator: Adobe Illustrator 19.1.0, SVG Export Plug-In . SVG Version: 6.00 Build 0)  -->
<svg version="1.1" id="Layer_1" xmlns="http://www.w3.org/2000/svg" xmlns:xlink="http://www.w3.org/1999/xlink" x="0px" y="0px"
	 viewBox="-270 394.4 54.3 53.5" style="enable-background:new -270 394.4 54.3 53.5;" xml:space="preserve">
<style type="text/css">
	.st0{fill:#fbb58e;}
	.st1{fill:#fb8e51;} /*fd833f  fd9c66*/
	.st2{fill:#fd5f07;}
	.st3{fill:none;stroke:#FFFFFF;stroke-miterlimit:10;}
	.st4{fill:#FFFFFF;}
</style>
<g>
	<circle class="st0" cx="-242.9" cy="421.1" r="26.5"/>
	<circle class="st1" cx="-242.9" cy="421.1" r="21.5"/>
	<g>
		<circle class="st2" cx="-242.9" cy="421.1" r="18.9"/>
		<g>
			<path class="st3" d="M-233.2,424.1c0,1.5-0.9,2.7-2,2.7h-15.4c-1.1,0-2-1.2-2-2.7v-5.9c0-1.5,0.9-2.7,2-2.7h15.4
				c1.1,0,2,1.2,2,2.7V424.1z"/>
			<rect x="-231.1" y="418.7" class="st4" width="2.7" height="4.9"/>
			<rect x="-257.3" y="418.7" class="st4" width="2.7" height="4.9"/>
			<rect x="-250" y="418.7" class="st4" width="4.3" height="1.6">
			
				<animate  fill="remove" attributeType="XML" attributeName="y" from="418.9" to="417" dur="1s" repeatCount="indefinite" accumulate="none" additive="replace" calcMode="linear" restart="always">
				</animate>
			</rect>
			
			<rect x="-240.2" y="418.7" class="st4" width="4.3" height="1.6">
			
				<animate  fill="remove" attributeType="XML" attributeName="y" from="418.9" to="417" dur="1s" repeatCount="indefinite" accumulate="none" additive="replace" calcMode="linear" restart="always">
				</animate>
			</rect>
		</g>
	</g>
</g>
<rect x="-250.4" y="417" class="st2" width="15.1" height="1.8"/>
</svg>
